# xmcd CD database file generated by Grip 3.2.0
# 
# Track frame offsets:
#       150
#       31098
#       57624
#       87947
#       116038
#       140199
#       162676
#       185650
#       202211
#       224800
#       238000
#       249431
#       264513
#       277284
# 
# Disc length: 4074 seconds
# 
# Revision: 1
# Processed by: cddbd v1.5.2PL0 Copyright (c) Steve Scherf et al.
# Submitted via: Grip 3.2.0
# 
DISCID=ee0fe80e
DTITLE=Johnny Colon - Boogaloo Bluesman: Best of Cotique Recordings
DYEAR=1967
DGENRE=Latin
TTITLE0=Boogaloo Blues
TTITLE1=Mira Ven Aca
TTITLE2=Descarga
TTITLE3=You Gotta Love Me
TTITLE4=Mayenelle
TTITLE5=Oyelo
TTITLE6=The Line Dance
TTITLE7=What You Mean
TTITLE8=Sunny
TTITLE9=Cosa Pa' Ti
TTITLE10=New York Mambo
TTITLE11=Ya Yi Ki
TTITLE12=Afincao
TTITLE13=Merecumbe
EXTD=
EXTT0=
EXTT1=
EXTT2=
EXTT3=
EXTT4=
EXTT5=
EXTT6=
EXTT7=
EXTT8=
EXTT9=
EXTT10=
EXTT11=
EXTT12=
EXTT13=
PLAYORDER=
